<svg width="18" height="18" viewBox="0 0 18 18" fill="none" xmlns="http://www.w3.org/2000/svg">
<path d="M5.25 16.5C4.8375 16.5 4.4845 16.3533 4.191 16.0597C3.897 15.7657 3.75 15.4125 3.75 15C3.75 14.5875 3.897 14.2343 4.191 13.9403C4.4845 13.6467 4.8375 13.5 5.25 13.5C5.6625 13.5 6.0155 13.6467 6.309 13.9403C6.603 14.2343 6.75 14.5875 6.75 15C6.75 15.4125 6.603 15.7657 6.309 16.0597C6.0155 16.3533 5.6625 16.5 5.25 16.5ZM12.75 16.5C12.3375 16.5 11.9845 16.3533 11.691 16.0597C11.397 15.7657 11.25 15.4125 11.25 15C11.25 14.5875 11.397 14.2343 11.691 13.9403C11.9845 13.6467 12.3375 13.5 12.75 13.5C13.1625 13.5 13.5157 13.6467 13.8097 13.9403C14.1033 14.2343 14.25 14.5875 14.25 15C14.25 15.4125 14.1033 15.7657 13.8097 16.0597C13.5157 16.3533 13.1625 16.5 12.75 16.5ZM4.6125 4.5L6.4125 8.25H11.6625L13.725 4.5H4.6125ZM5.25 12.75C4.6875 12.75 4.2625 12.503 3.975 12.009C3.6875 11.5155 3.675 11.025 3.9375 10.5375L4.95 8.7L2.25 3H1.48125C1.26875 3 1.09375 2.928 0.95625 2.784C0.81875 2.6405 0.75 2.4625 0.75 2.25C0.75 2.0375 0.822 1.85925 0.966 1.71525C1.1095 1.57175 1.2875 1.5 1.5 1.5H2.71875C2.85625 1.5 2.9875 1.5375 3.1125 1.6125C3.2375 1.6875 3.33125 1.79375 3.39375 1.93125L3.9 3H14.9625C15.3 3 15.5312 3.125 15.6562 3.375C15.7812 3.625 15.775 3.8875 15.6375 4.1625L12.975 8.9625C12.8375 9.2125 12.6563 9.40625 12.4313 9.54375C12.2063 9.68125 11.95 9.75 11.6625 9.75H6.075L5.25 11.25H13.5187C13.7312 11.25 13.9062 11.3217 14.0438 11.4653C14.1813 11.6093 14.25 11.7875 14.25 12C14.25 12.2125 14.178 12.3905 14.034 12.534C13.8905 12.678 13.7125 12.75 13.5 12.75H5.25ZM6.4125 8.25H11.6625H6.4125Z" fill="#181818"/>
</svg>
