<svg xmlns="http://www.w3.org/2000/svg" width="17" height="18" viewBox="0 0 17 18" fill="none">
  <path d="M8.50002 1.91675C10.4246 1.91675 10.6647 1.92383 11.4198 1.95925C12.1741 1.99466 12.6877 2.11296 13.1396 2.28862C13.6071 2.46854 14.0009 2.71221 14.3948 3.10533C14.755 3.45942 15.0337 3.88775 15.2115 4.3605C15.3864 4.81171 15.5054 5.32596 15.5409 6.08033C15.5741 6.83541 15.5834 7.07554 15.5834 9.00008C15.5834 10.9246 15.5763 11.1647 15.5409 11.9198C15.5054 12.6742 15.3864 13.1877 15.2115 13.6397C15.0342 14.1127 14.7554 14.5411 14.3948 14.8948C14.0406 15.2549 13.6123 15.5336 13.1396 15.7115C12.6884 15.8865 12.1741 16.0055 11.4198 16.0409C10.6647 16.0742 10.4246 16.0834 8.50002 16.0834C6.57548 16.0834 6.33535 16.0763 5.58027 16.0409C4.8259 16.0055 4.31235 15.8865 3.86044 15.7115C3.3875 15.5341 2.9591 15.2553 2.60527 14.8948C2.24502 14.5408 1.96631 14.1125 1.78856 13.6397C1.6129 13.1885 1.4946 12.6742 1.45919 11.9198C1.4259 11.1647 1.41669 10.9246 1.41669 9.00008C1.41669 7.07554 1.42377 6.83541 1.45919 6.08033C1.4946 5.32525 1.6129 4.81241 1.78856 4.3605C1.96581 3.88746 2.24459 3.45902 2.60527 3.10533C2.9592 2.74495 3.38757 2.46622 3.86044 2.28862C4.31235 2.11296 4.82519 1.99466 5.58027 1.95925C6.33535 1.92596 6.57548 1.91675 8.50002 1.91675ZM8.50002 5.45842C7.56071 5.45842 6.65988 5.83155 5.99568 6.49575C5.33149 7.15994 4.95835 8.06077 4.95835 9.00008C4.95835 9.93939 5.33149 10.8402 5.99568 11.5044C6.65988 12.1686 7.56071 12.5417 8.50002 12.5417C9.43933 12.5417 10.3402 12.1686 11.0044 11.5044C11.6685 10.8402 12.0417 9.93939 12.0417 9.00008C12.0417 8.06077 11.6685 7.15994 11.0044 6.49575C10.3402 5.83155 9.43933 5.45842 8.50002 5.45842ZM13.1042 5.28133C13.1042 5.0465 13.0109 4.8213 12.8449 4.65525C12.6788 4.4892 12.4536 4.39591 12.2188 4.39591C11.9839 4.39591 11.7587 4.4892 11.5927 4.65525C11.4266 4.8213 11.3334 5.0465 11.3334 5.28133C11.3334 5.51616 11.4266 5.74137 11.5927 5.90742C11.7587 6.07346 11.9839 6.16675 12.2188 6.16675C12.4536 6.16675 12.6788 6.07346 12.8449 5.90742C13.0109 5.74137 13.1042 5.51616 13.1042 5.28133ZM8.50002 6.87508C9.06361 6.87508 9.60411 7.09896 10.0026 7.49748C10.4011 7.89599 10.625 8.4365 10.625 9.00008C10.625 9.56367 10.4011 10.1042 10.0026 10.5027C9.60411 10.9012 9.06361 11.1251 8.50002 11.1251C7.93644 11.1251 7.39593 10.9012 6.99742 10.5027C6.5989 10.1042 6.37502 9.56367 6.37502 9.00008C6.37502 8.4365 6.5989 7.89599 6.99742 7.49748C7.39593 7.09896 7.93644 6.87508 8.50002 6.87508Z" fill="white"/>
</svg>